<?xml version="1.0" encoding="UTF-8" standalone="no"?>
<!DOCTYPE svg PUBLIC "-//W3C//DTD SVG 1.1//EN" "http://www.w3.org/Graphics/SVG/1.1/DTD/svg11.dtd">
<svg width="100%" height="100%" viewBox="0 0 536 145" version="1.1" xmlns="http://www.w3.org/2000/svg" xmlns:xlink="http://www.w3.org/1999/xlink" xml:space="preserve" xmlns:serif="http://www.serif.com/" style="fill-rule:evenodd;clip-rule:evenodd;stroke-linejoin:round;stroke-miterlimit:2;">
    <g transform="matrix(1,0,0,1,-149.686,-549.555)">
        <g transform="matrix(1,0,0,1,344.109,549.609)">
            <path d="M0,0C1.821,0.007 3.643,0.013 5.464,0.017C10.218,0.032 14.972,0.071 19.727,0.116C24.594,0.157 29.461,0.175 34.328,0.195C43.849,0.238 53.37,0.306 62.891,0.391C61.676,8.235 60.162,15.933 58.266,23.641C58.036,24.588 57.807,25.536 57.57,26.512C57.014,28.806 56.454,31.099 55.891,33.391C55.012,33.396 54.134,33.402 53.229,33.408C44.945,33.466 36.661,33.538 28.378,33.626C24.119,33.671 19.861,33.71 15.602,33.737C11.491,33.763 7.381,33.804 3.27,33.854C1.703,33.87 0.135,33.882 -1.432,33.888C-3.63,33.898 -5.827,33.926 -8.024,33.958C-9.274,33.969 -10.525,33.98 -11.813,33.992C-15.392,34.425 -17.258,35.221 -20.109,37.391C-22.79,41.411 -22.913,44.666 -22.109,49.391C-19.839,52.596 -18.396,54.082 -14.553,55.005C-10.071,55.507 -5.644,55.546 -1.137,55.566C0.835,55.59 2.807,55.614 4.779,55.639C7.857,55.674 10.935,55.703 14.013,55.717C31.575,55.808 47.322,57.04 60.703,69.703C64.453,73.649 66.929,77.338 68.891,82.391C69.187,83.007 69.484,83.623 69.789,84.258C73.911,93.977 73.318,106.701 69.766,116.453C64.782,127.55 58.039,137.057 46.317,141.545C35.757,145.225 24.913,144.649 13.883,144.586C11.947,144.582 10.01,144.579 8.074,144.577C3.007,144.57 -2.059,144.55 -7.126,144.528C-12.308,144.507 -17.49,144.498 -22.672,144.488C-32.818,144.467 -42.964,144.433 -53.109,144.391C-52.804,142.505 -52.497,140.62 -52.188,138.735C-52.017,137.685 -51.846,136.635 -51.669,135.554C-50.842,130.88 -49.723,126.299 -48.547,121.703C-48.215,120.366 -48.215,120.366 -47.877,119.002C-46.241,112.522 -46.241,112.522 -45.109,111.391C-42.769,111.276 -40.456,111.226 -38.115,111.217C-37.383,111.21 -36.651,111.204 -35.897,111.197C-34.302,111.183 -32.707,111.171 -31.112,111.161C-28.586,111.144 -26.06,111.121 -23.533,111.096C-16.348,111.025 -9.163,110.965 -1.978,110.914C2.413,110.882 6.804,110.841 11.194,110.794C12.867,110.778 14.539,110.765 16.212,110.757C18.558,110.745 20.903,110.72 23.249,110.694C23.936,110.693 24.624,110.692 25.332,110.692C29.533,110.629 33.011,110.02 36.891,108.391C37.937,106.724 37.937,106.724 37.891,104.391C38.076,102.442 38.076,102.442 38.266,100.453C38.215,97.054 37.918,96.428 35.766,93.516C29.943,89.212 24.32,89.099 17.355,89.082C15.475,89.057 13.594,89.031 11.713,89.006C8.78,88.977 5.847,88.953 2.913,88.934C-30.85,88.675 -30.85,88.675 -43.676,77.012C-52.456,67.084 -56.837,55.485 -56.367,42.289C-56.051,38.733 -55.371,35.735 -54.109,32.391C-53.818,31.589 -53.527,30.787 -53.227,29.961C-48.554,17.563 -40.8,8.827 -28.735,3.304C-19.183,-0.35 -10.062,-0.122 0,0Z" style="fill:rgb(8,27,55);fill-rule:nonzero;"/>
        </g>
        <g transform="matrix(1,0,0,1,205.598,549.707)">
            <path d="M0,0C1.803,0.006 3.606,0.01 5.41,0.013C10.129,0.024 14.849,0.054 19.569,0.087C24.395,0.118 29.222,0.131 34.049,0.146C43.5,0.179 52.951,0.23 62.402,0.293C62.436,3.906 62.406,7.027 61.379,10.5C61.162,11.252 60.946,12.004 60.723,12.779C60.493,13.547 60.264,14.315 60.027,15.105C59.58,16.632 59.134,18.159 58.691,19.688C58.492,20.356 58.293,21.025 58.088,21.714C57.069,25.546 56.243,29.419 55.402,33.293C54.107,33.298 54.107,33.298 52.785,33.304C44.634,33.342 36.483,33.399 28.333,33.477C24.142,33.516 19.953,33.549 15.762,33.564C11.716,33.579 7.67,33.614 3.624,33.661C2.083,33.676 0.542,33.684 -1,33.685C-3.164,33.687 -5.327,33.714 -7.491,33.747C-8.721,33.756 -9.951,33.765 -11.219,33.774C-15.266,34.396 -17.425,35.745 -20.598,38.293C-22.694,41.438 -22.963,43.454 -23.254,47.16C-22.175,50.665 -19.696,52.565 -16.598,54.293C-13.202,55.008 -9.883,54.991 -6.422,54.965C-4.973,54.984 -4.973,54.984 -3.495,55.003C-0.425,55.04 2.644,55.042 5.715,55.043C8.803,55.065 11.891,55.093 14.979,55.125C16.897,55.143 18.816,55.153 20.734,55.155C21.596,55.159 22.457,55.163 23.345,55.167C24.487,55.168 24.487,55.168 25.652,55.168C27.402,55.293 27.402,55.293 28.402,56.293C29.895,56.619 31.397,56.903 32.902,57.168C45.342,59.621 56.36,64.231 63.969,74.887C70.607,86.029 72.631,99.625 69.972,112.354C68.171,118.518 65.328,124.228 61.402,129.293C60.866,130.118 60.33,130.943 59.777,131.793C52.376,139.583 41.093,144.089 30.46,144.413C28.892,144.416 27.324,144.413 25.757,144.406C24.898,144.407 24.039,144.407 23.153,144.407C20.324,144.406 17.494,144.398 14.664,144.391C12.698,144.389 10.732,144.387 8.767,144.386C3.6,144.383 -1.567,144.373 -6.734,144.362C-12.01,144.351 -17.285,144.347 -22.561,144.342C-32.906,144.331 -43.252,144.314 -53.598,144.293C-53.053,139.316 -52.341,135.517 -50.426,130.852C-49.035,126.554 -48.356,122.111 -47.6,117.664C-46.691,112.386 -46.691,112.386 -45.598,111.293C-43.252,111.184 -40.934,111.139 -38.587,111.135C-37.487,111.128 -37.487,111.128 -36.365,111.12C-34.766,111.109 -33.168,111.101 -31.57,111.094C-29.04,111.082 -26.509,111.063 -23.979,111.041C-16.783,110.979 -9.587,110.925 -2.391,110.892C2.007,110.871 6.404,110.835 10.801,110.791C12.477,110.777 14.153,110.768 15.829,110.765C18.178,110.76 20.526,110.737 22.874,110.709C23.565,110.712 24.256,110.715 24.968,110.719C29.262,110.645 31.979,109.909 35.402,107.293C37.251,103.596 36.873,99.329 36.402,95.293C34.015,91.756 31.352,90.669 27.402,89.293C20.246,88.224 12.941,88.226 5.715,88.117C4.958,88.105 4.201,88.093 3.42,88.081C0.297,88.033 -2.826,87.985 -5.95,87.967C-20.643,87.868 -34.707,86.319 -45.598,75.293C-52.097,66.54 -55.99,57.456 -55.91,46.543C-55.905,45.743 -55.899,44.943 -55.893,44.119C-55.634,31.509 -50.975,21.687 -42.348,12.48C-37.904,8.253 -33.295,5.51 -27.598,3.293C-26.44,2.782 -25.281,2.271 -24.088,1.744C-16.382,-0.79 -8.019,-0.073 0,0Z" style="fill:rgb(10,28,56);fill-rule:nonzero;"/>
        </g>
        <g transform="matrix(1,0,0,1,616.109,549.609)">
            <path d="M0,0C1.821,0.007 3.643,0.013 5.464,0.017C10.218,0.032 14.972,0.071 19.727,0.116C24.594,0.157 29.461,0.175 34.328,0.195C43.849,0.238 53.37,0.306 62.891,0.391C62.173,4.849 61.241,9.15 60.078,13.516C59.762,14.714 59.446,15.913 59.121,17.148C58.134,20.691 56.983,24.169 55.814,27.656C55.454,28.731 55.093,29.807 54.722,30.915C54.448,31.732 54.173,32.549 53.891,33.391C52.611,33.399 52.611,33.399 51.305,33.408C43.256,33.466 35.208,33.538 27.16,33.626C23.023,33.671 18.885,33.71 14.748,33.737C10.754,33.763 6.76,33.804 2.766,33.854C1.243,33.87 -0.28,33.882 -1.802,33.888C-3.938,33.898 -6.072,33.926 -8.208,33.958C-9.422,33.969 -10.637,33.98 -11.889,33.992C-15.423,34.429 -17.287,35.254 -20.109,37.391C-22.219,40.554 -22.453,41.656 -22.547,45.328C-22.587,46.183 -22.627,47.037 -22.668,47.918C-22.291,50.553 -22.291,50.553 -20.13,52.514C-16.051,55.048 -12.923,54.941 -8.215,54.895C-7.35,54.904 -6.485,54.913 -5.594,54.923C-2.828,54.952 -0.063,54.955 2.703,54.953C23.344,54.981 43.157,55.369 59.176,70.371C68.843,81.756 69.941,94.418 69.167,108.709C68.067,119.366 61.941,128.56 53.891,135.391C50.349,137.707 46.718,139.597 42.891,141.391C41.602,142.161 41.602,142.161 40.288,142.948C35.973,144.78 32.488,144.791 27.856,144.731C26.968,144.732 26.079,144.732 25.164,144.733C22.242,144.73 19.32,144.707 16.398,144.684C14.367,144.678 12.335,144.674 10.303,144.671C4.967,144.659 -0.369,144.63 -5.706,144.597C-11.155,144.566 -16.605,144.552 -22.055,144.537C-32.74,144.505 -43.425,144.454 -54.109,144.391C-52.406,136.209 -50.604,128.084 -48.422,120.016C-48.197,119.173 -47.972,118.33 -47.74,117.461C-47.2,115.437 -46.655,113.414 -46.109,111.391C-45.196,111.385 -44.282,111.379 -43.34,111.373C-34.718,111.315 -26.097,111.243 -17.475,111.155C-13.043,111.11 -8.611,111.071 -4.178,111.044C0.101,111.018 4.381,110.978 8.66,110.927C10.29,110.911 11.921,110.899 13.552,110.893C15.84,110.883 18.128,110.855 20.417,110.823C21.718,110.812 23.019,110.801 24.36,110.789C28.199,110.356 30.644,109.467 33.891,107.391C35.245,103.328 35.693,99.627 34.891,95.391C32.539,92.221 29.62,90.634 25.891,89.391C24.518,89.302 23.141,89.266 21.765,89.265C20.936,89.261 20.107,89.257 19.253,89.253C18.356,89.252 17.459,89.251 16.535,89.25C14.613,89.232 12.69,89.212 10.768,89.191C7.755,89.163 4.744,89.141 1.732,89.14C-15.55,89.12 -31.89,87.969 -45.109,75.391C-53.304,66.29 -56.823,55.717 -56.359,43.551C-55.164,28.44 -49.69,18.336 -38.109,8.391C-26.909,-0.25 -13.397,-0.163 0,0Z" style="fill:rgb(9,27,55);fill-rule:nonzero;"/>
        </g>
        <g transform="matrix(1,0,0,1,424,550)">
            <path d="M0,0L124,0L124,33L78,33L78,144L45,144L45,33L0,33L0,0Z" style="fill:rgb(14,32,60);fill-rule:nonzero;"/>
        </g>
    </g>
</svg>
